<?xml version="1.0" encoding="UTF-8"?>
<svg xmlns="http://www.w3.org/2000/svg" width="16" height="16" viewBox="0 0 16 16">
  <path fill="currentColor" d="M0 0h7v7H0V0zm1.5 1.5v4h4v-4h-4zm1 1h2v2h-2v-2z"/>
  <path fill="currentColor" d="M0 9h7v7H0V9zm1.5 1.5v4h4v-4h-4zm1 1h2v2h-2v-2z"/>
  <path fill="currentColor" d="M9 0h7v7H9V0zm1.5 1.5v4h4v-4h-4zm1 1h2v2h-2v-2z"/>
  <path fill="currentColor" d="M9 9h2v2H9V9zm3 0h2v2h-2V9zm3 0h1v2h-1V9zm-6 3h2v2H9v-2zm3 0h1v1h-1v-1zm2 0h2v1h-2v-1zm-5 3h2v1H9v-1zm3 0h1v1h-1v-1zm2 0h2v1h-2v-1zm-3-2h1v2h-1v-2zm3 0h1v2h-1v-2z"/>
</svg>
